<svg width="27" height="27" viewBox="0 0 27 27" fill="none" xmlns="http://www.w3.org/2000/svg">
<path d="M25.286 10.9002L24.6611 9.80864C24.633 9.76052 24.5871 9.72547 24.5332 9.71114C24.4794 9.69682 24.422 9.70438 24.3737 9.73218L23.0369 10.5126L20.9724 4.81206C20.8634 4.47191 20.6491 4.1752 20.3605 3.96477C20.0718 3.75434 19.7238 3.64109 19.3666 3.64136H7.9417C7.02676 3.64136 6.21465 4.23198 5.93252 5.10474L3.96553 10.5153L2.62608 9.73482C2.57779 9.70702 2.52046 9.69945 2.46661 9.71378C2.41276 9.72811 2.36677 9.76316 2.33867 9.81128L1.71377 10.9002C1.65576 11.0004 1.69004 11.127 1.79024 11.185L3.38282 12.1131L3.00049 13.1678C2.96885 13.2522 2.95303 13.3418 2.95303 13.4315V22.6125C2.95303 23.0265 3.26416 23.3614 3.64649 23.3614H5.42891C5.75323 23.3614 6.03535 23.1162 6.10391 22.7734L6.30694 21.7793H20.6929L20.8959 22.7734C20.9671 23.1162 21.2466 23.3614 21.5709 23.3614H23.3533C23.7356 23.3614 24.0468 23.0265 24.0468 22.6125V13.4315C24.0468 13.3418 24.031 13.2522 23.9993 13.1678L23.617 12.1131L25.2069 11.185C25.2548 11.1574 25.2899 11.1121 25.3047 11.0588C25.3195 11.0055 25.3128 10.9486 25.286 10.9002ZM6.96084 16.3741C6.37813 16.3741 5.90616 15.9021 5.90616 15.3194C5.90616 14.7367 6.37813 14.2647 6.96084 14.2647C7.54356 14.2647 8.01553 14.7367 8.01553 15.3194C8.01553 15.9021 7.54356 16.3741 6.96084 16.3741ZM17.1913 18.3516C17.1913 18.4676 17.0964 18.5625 16.9804 18.5625H10.0194C9.90342 18.5625 9.8085 18.4676 9.8085 18.3516V16.1368C9.8085 16.0208 9.90342 15.9258 10.0194 15.9258H11.0741C11.1901 15.9258 11.2851 16.0208 11.2851 16.1368V17.086H15.7147V16.1368C15.7147 16.0208 15.8097 15.9258 15.9257 15.9258H16.9804C17.0964 15.9258 17.1913 16.0208 17.1913 16.1368V18.3516ZM20.039 16.3741C19.4563 16.3741 18.9843 15.9021 18.9843 15.3194C18.9843 14.7367 19.4563 14.2647 20.039 14.2647C20.6217 14.2647 21.0937 14.7367 21.0937 15.3194C21.0937 15.9021 20.6217 16.3741 20.039 16.3741ZM5.80069 11.0215L7.71758 5.75073L7.73076 5.71646L7.74131 5.68218C7.77032 5.59517 7.84942 5.53716 7.9417 5.53716H19.2163L21.2044 11.0215H5.80069Z" fill="black"/>
</svg>
