<svg width="25" height="25" viewBox="0 0 25 25" fill="none" xmlns="http://www.w3.org/2000/svg">
<g clip-path="url(#clip0_60_1084)">
<path d="M9.37891 8.59375C9.37891 9.21535 9.13198 9.81149 8.69244 10.251C8.2529 10.6906 7.65676 10.9375 7.03516 10.9375C6.41355 10.9375 5.81741 10.6906 5.37787 10.251C4.93834 9.81149 4.69141 9.21535 4.69141 8.59375C4.69141 7.97215 4.93834 7.37601 5.37787 6.93647C5.81741 6.49693 6.41355 6.25 7.03516 6.25C7.65676 6.25 8.2529 6.49693 8.69244 6.93647C9.13198 7.37601 9.37891 7.97215 9.37891 8.59375Z" fill="black"/>
<path d="M3.12891 1.5625C2.3001 1.5625 1.50525 1.89174 0.919198 2.47779C0.333146 3.06384 0.00390625 3.8587 0.00390625 4.6875V20.3125C0.00390625 21.1413 0.333146 21.9362 0.919198 22.5222C1.50525 23.1083 2.3001 23.4375 3.12891 23.4375H21.8789C22.7077 23.4375 23.5026 23.1083 24.0886 22.5222C24.6747 21.9362 25.0039 21.1413 25.0039 20.3125V4.6875C25.0039 3.8587 24.6747 3.06384 24.0886 2.47779C23.5026 1.89174 22.7077 1.5625 21.8789 1.5625H3.12891ZM21.8789 3.125C22.2933 3.125 22.6907 3.28962 22.9838 3.58265C23.2768 3.87567 23.4414 4.2731 23.4414 4.6875V14.8438L17.5398 11.8016C17.3933 11.7282 17.2274 11.7027 17.0656 11.7288C16.9038 11.7549 16.7543 11.8312 16.6383 11.9469L10.8414 17.7437L6.68516 14.975C6.53509 14.8751 6.3551 14.8302 6.17569 14.8478C5.99627 14.8655 5.82849 14.9446 5.70078 15.0719L1.56641 18.75V4.6875C1.56641 4.2731 1.73103 3.87567 2.02405 3.58265C2.31708 3.28962 2.71451 3.125 3.12891 3.125H21.8789Z" fill="black"/>
</g>
<defs>
<clipPath id="clip0_60_1084">
<rect width="25" height="25" fill="white"/>
</clipPath>
</defs>
</svg>
