<svg width="29" height="28" viewBox="0 0 29 28" fill="none" xmlns="http://www.w3.org/2000/svg">
<path d="M24.166 11.1498V3.5H21.7493V5.83333H7.24935V3.5H4.83268V11.1498C3.39477 11.9583 2.41602 13.4458 2.41602 15.1667V19.8333C2.41602 20.1428 2.54332 20.4395 2.76993 20.6583C2.99653 20.8771 3.30388 21 3.62435 21H4.83268V25.6667H7.24935V21H21.7493V25.6667H24.166V21H25.3743C25.6948 21 26.0022 20.8771 26.2288 20.6583C26.4554 20.4395 26.5827 20.1428 26.5827 19.8333V15.1667C26.5827 13.4458 25.6027 11.9583 24.166 11.1498ZM21.7493 8.16667V10.5H15.7077V8.16667H21.7493ZM7.24935 8.16667H13.291V10.5H7.24935V8.16667ZM24.166 18.6667H4.83268V15.1667C4.83268 13.8798 5.91656 12.8333 7.24935 12.8333H21.7493C23.0821 12.8333 24.166 13.8798 24.166 15.1667V18.6667Z" fill="black"/>
</svg>
