<svg width="25" height="25" viewBox="0 0 25 25" fill="none" xmlns="http://www.w3.org/2000/svg">
<path d="M23.2143 15.1786V17.8571C23.2143 19.4289 22.619 20.7589 21.4286 21.8471V24.5536C21.4286 24.6838 21.3867 24.7907 21.303 24.8744C21.2193 24.9581 21.1124 25 20.9821 25H20.0893C19.9591 25 19.8521 24.9581 19.7684 24.8744C19.6847 24.7907 19.6429 24.6838 19.6429 24.5536V22.9074C19.0569 23.112 18.4617 23.2143 17.8571 23.2143H7.14286C6.53832 23.2143 5.94308 23.112 5.35714 22.9074V24.442C5.35714 24.6001 5.31296 24.7326 5.22461 24.8396C5.13625 24.9465 5.03162 25 4.91071 25H4.01786C3.89695 25 3.79232 24.9465 3.70396 24.8396C3.61561 24.7326 3.57143 24.6001 3.57143 24.442V21.8471C2.38095 20.7589 1.78571 19.4289 1.78571 17.8571V15.1786H23.2143ZM9.82143 9.375C9.82143 9.50521 9.77958 9.61217 9.69587 9.69587C9.61217 9.77958 9.50521 9.82143 9.375 9.82143C9.24479 9.82143 9.13783 9.77958 9.05413 9.69587C8.97042 9.61217 8.92857 9.50521 8.92857 9.375C8.92857 9.24479 8.97042 9.13783 9.05413 9.05413C9.13783 8.97042 9.24479 8.92857 9.375 8.92857C9.50521 8.92857 9.61217 8.97042 9.69587 9.05413C9.77958 9.13783 9.82143 9.24479 9.82143 9.375ZM10.7143 8.48214C10.7143 8.61235 10.6724 8.71931 10.5887 8.80301C10.505 8.88672 10.3981 8.92857 10.2679 8.92857C10.1376 8.92857 10.0307 8.88672 9.94699 8.80301C9.86328 8.71931 9.82143 8.61235 9.82143 8.48214C9.82143 8.35193 9.86328 8.24498 9.94699 8.16127C10.0307 8.07757 10.1376 8.03571 10.2679 8.03571C10.3981 8.03571 10.505 8.07757 10.5887 8.16127C10.6724 8.24498 10.7143 8.35193 10.7143 8.48214ZM9.82143 7.58929C9.82143 7.71949 9.77958 7.82645 9.69587 7.91016C9.61217 7.99386 9.50521 8.03571 9.375 8.03571C9.24479 8.03571 9.13783 7.99386 9.05413 7.91016C8.97042 7.82645 8.92857 7.71949 8.92857 7.58929C8.92857 7.45908 8.97042 7.35212 9.05413 7.26841C9.13783 7.18471 9.24479 7.14286 9.375 7.14286C9.50521 7.14286 9.61217 7.18471 9.69587 7.26841C9.77958 7.35212 9.82143 7.45908 9.82143 7.58929ZM11.6071 7.58929C11.6071 7.71949 11.5653 7.82645 11.4816 7.91016C11.3979 7.99386 11.2909 8.03571 11.1607 8.03571C11.0305 8.03571 10.9235 7.99386 10.8398 7.91016C10.7561 7.82645 10.7143 7.71949 10.7143 7.58929C10.7143 7.45908 10.7561 7.35212 10.8398 7.26841C10.9235 7.18471 11.0305 7.14286 11.1607 7.14286C11.2909 7.14286 11.3979 7.18471 11.4816 7.26841C11.5653 7.35212 11.6071 7.45908 11.6071 7.58929ZM10.7143 6.69643C10.7143 6.82664 10.6724 6.93359 10.5887 7.0173C10.505 7.101 10.3981 7.14286 10.2679 7.14286C10.1376 7.14286 10.0307 7.101 9.94699 7.0173C9.86328 6.93359 9.82143 6.82664 9.82143 6.69643C9.82143 6.56622 9.86328 6.45926 9.94699 6.37556C10.0307 6.29185 10.1376 6.25 10.2679 6.25C10.3981 6.25 10.505 6.29185 10.5887 6.37556C10.6724 6.45926 10.7143 6.56622 10.7143 6.69643ZM9.82143 5.80357C9.82143 5.93378 9.77958 6.04074 9.69587 6.12444C9.61217 6.20815 9.50521 6.25 9.375 6.25C9.24479 6.25 9.13783 6.20815 9.05413 6.12444C8.97042 6.04074 8.92857 5.93378 8.92857 5.80357C8.92857 5.67336 8.97042 5.56641 9.05413 5.4827C9.13783 5.399 9.24479 5.35714 9.375 5.35714C9.50521 5.35714 9.61217 5.399 9.69587 5.4827C9.77958 5.56641 9.82143 5.67336 9.82143 5.80357ZM25 12.9464V13.8393C25 13.9695 24.9581 14.0765 24.8744 14.1602C24.7907 14.2439 24.6838 14.2857 24.5536 14.2857H0.446429C0.31622 14.2857 0.209263 14.2439 0.125558 14.1602C0.0418527 14.0765 0 13.9695 0 13.8393V12.9464C0 12.8162 0.0418527 12.7093 0.125558 12.6256C0.209263 12.5419 0.31622 12.5 0.446429 12.5H1.78571V3.57143C1.78571 2.58557 2.13449 1.74386 2.83203 1.04632C3.52958 0.348772 4.37128 0 5.35714 0C6.36161 0 7.21726 0.362723 7.92411 1.08817C8.35193 0.911458 8.80766 0.855655 9.29129 0.920759C9.77493 0.985863 10.2074 1.16722 10.5887 1.46484L10.8956 1.15792C10.998 1.05562 11.1003 1.05562 11.2026 1.15792L11.7885 1.74386C11.8908 1.84617 11.8908 1.94847 11.7885 2.05078L7.40792 6.43136C7.30562 6.53367 7.20331 6.53367 7.101 6.43136L6.51507 5.84542C6.41276 5.74312 6.41276 5.64081 6.51507 5.5385L6.82199 5.23158C6.48716 4.80376 6.29883 4.32013 6.25698 3.78069C6.21512 3.24126 6.3244 2.73903 6.58482 2.274C6.2407 1.94847 5.83147 1.78571 5.35714 1.78571C4.86421 1.78571 4.44336 1.9601 4.09459 2.30887C3.74581 2.65764 3.57143 3.0785 3.57143 3.57143V12.5H24.5536C24.6838 12.5 24.7907 12.5419 24.8744 12.6256C24.9581 12.7093 25 12.8162 25 12.9464ZM12.5 6.69643C12.5 6.82664 12.4581 6.93359 12.3744 7.0173C12.2907 7.101 12.1838 7.14286 12.0536 7.14286C11.9234 7.14286 11.8164 7.101 11.7327 7.0173C11.649 6.93359 11.6071 6.82664 11.6071 6.69643C11.6071 6.56622 11.649 6.45926 11.7327 6.37556C11.8164 6.29185 11.9234 6.25 12.0536 6.25C12.1838 6.25 12.2907 6.29185 12.3744 6.37556C12.4581 6.45926 12.5 6.56622 12.5 6.69643ZM11.6071 5.80357C11.6071 5.93378 11.5653 6.04074 11.4816 6.12444C11.3979 6.20815 11.2909 6.25 11.1607 6.25C11.0305 6.25 10.9235 6.20815 10.8398 6.12444C10.7561 6.04074 10.7143 5.93378 10.7143 5.80357C10.7143 5.67336 10.7561 5.56641 10.8398 5.4827C10.9235 5.399 11.0305 5.35714 11.1607 5.35714C11.2909 5.35714 11.3979 5.399 11.4816 5.4827C11.5653 5.56641 11.6071 5.67336 11.6071 5.80357ZM10.7143 4.91071C10.7143 5.04092 10.6724 5.14788 10.5887 5.23158C10.505 5.31529 10.3981 5.35714 10.2679 5.35714C10.1376 5.35714 10.0307 5.31529 9.94699 5.23158C9.86328 5.14788 9.82143 5.04092 9.82143 4.91071C9.82143 4.78051 9.86328 4.67355 9.94699 4.58984C10.0307 4.50614 10.1376 4.46429 10.2679 4.46429C10.3981 4.46429 10.505 4.50614 10.5887 4.58984C10.6724 4.67355 10.7143 4.78051 10.7143 4.91071ZM13.3929 5.80357C13.3929 5.93378 13.351 6.04074 13.2673 6.12444C13.1836 6.20815 13.0766 6.25 12.9464 6.25C12.8162 6.25 12.7093 6.20815 12.6256 6.12444C12.5419 6.04074 12.5 5.93378 12.5 5.80357C12.5 5.67336 12.5419 5.56641 12.6256 5.4827C12.7093 5.399 12.8162 5.35714 12.9464 5.35714C13.0766 5.35714 13.1836 5.399 13.2673 5.4827C13.351 5.56641 13.3929 5.67336 13.3929 5.80357ZM12.5 4.91071C12.5 5.04092 12.4581 5.14788 12.3744 5.23158C12.2907 5.31529 12.1838 5.35714 12.0536 5.35714C11.9234 5.35714 11.8164 5.31529 11.7327 5.23158C11.649 5.14788 11.6071 5.04092 11.6071 4.91071C11.6071 4.78051 11.649 4.67355 11.7327 4.58984C11.8164 4.50614 11.9234 4.46429 12.0536 4.46429C12.1838 4.46429 12.2907 4.50614 12.3744 4.58984C12.4581 4.67355 12.5 4.78051 12.5 4.91071ZM11.6071 4.01786C11.6071 4.14807 11.5653 4.25502 11.4816 4.33873C11.3979 4.42243 11.2909 4.46429 11.1607 4.46429C11.0305 4.46429 10.9235 4.42243 10.8398 4.33873C10.7561 4.25502 10.7143 4.14807 10.7143 4.01786C10.7143 3.88765 10.7561 3.78069 10.8398 3.69699C10.9235 3.61328 11.0305 3.57143 11.1607 3.57143C11.2909 3.57143 11.3979 3.61328 11.4816 3.69699C11.5653 3.78069 11.6071 3.88765 11.6071 4.01786ZM14.2857 4.91071C14.2857 5.04092 14.2439 5.14788 14.1602 5.23158C14.0765 5.31529 13.9695 5.35714 13.8393 5.35714C13.7091 5.35714 13.6021 5.31529 13.5184 5.23158C13.4347 5.14788 13.3929 5.04092 13.3929 4.91071C13.3929 4.78051 13.4347 4.67355 13.5184 4.58984C13.6021 4.50614 13.7091 4.46429 13.8393 4.46429C13.9695 4.46429 14.0765 4.50614 14.1602 4.58984C14.2439 4.67355 14.2857 4.78051 14.2857 4.91071ZM13.3929 4.01786C13.3929 4.14807 13.351 4.25502 13.2673 4.33873C13.1836 4.42243 13.0766 4.46429 12.9464 4.46429C12.8162 4.46429 12.7093 4.42243 12.6256 4.33873C12.5419 4.25502 12.5 4.14807 12.5 4.01786C12.5 3.88765 12.5419 3.78069 12.6256 3.69699C12.7093 3.61328 12.8162 3.57143 12.9464 3.57143C13.0766 3.57143 13.1836 3.61328 13.2673 3.69699C13.351 3.78069 13.3929 3.88765 13.3929 4.01786ZM15.1786 4.01786C15.1786 4.14807 15.1367 4.25502 15.053 4.33873C14.9693 4.42243 14.8624 4.46429 14.7321 4.46429C14.6019 4.46429 14.495 4.42243 14.4113 4.33873C14.3276 4.25502 14.2857 4.14807 14.2857 4.01786C14.2857 3.88765 14.3276 3.78069 14.4113 3.69699C14.495 3.61328 14.6019 3.57143 14.7321 3.57143C14.8624 3.57143 14.9693 3.61328 15.053 3.69699C15.1367 3.78069 15.1786 3.88765 15.1786 4.01786Z" fill="black"/>
</svg>
