<svg width="26" height="26" viewBox="0 0 26 26" fill="none" xmlns="http://www.w3.org/2000/svg">
<path d="M11.9211 3.18438C12.2512 3.00109 12.6225 2.90491 13 2.90491C13.3775 2.90491 13.7488 3.00109 14.0789 3.18438L22.4289 7.82216C22.602 7.91843 22.7462 8.05922 22.8467 8.22996C22.9471 8.40071 23 8.59519 23 8.79327V17.9433C22.9999 18.3395 22.8939 18.7286 22.6928 19.0701C22.4918 19.4116 22.2031 19.6931 21.8567 19.8855L14.0789 24.2077C13.7488 24.391 13.3775 24.4872 13 24.4872C12.6225 24.4872 12.2512 24.391 11.9211 24.2077L4.14333 19.8855C3.79706 19.6932 3.50848 19.4118 3.30746 19.0706C3.10644 18.7293 3.00029 18.3405 3 17.9444V8.79327C2.99999 8.59519 3.05294 8.40071 3.15335 8.22996C3.25376 8.05922 3.398 7.91843 3.57111 7.82216L11.9222 3.18438H11.9211Z" stroke="white" stroke-width="2" stroke-linecap="round" stroke-linejoin="round"/>
<path d="M3 8.14001L13 13.6956M13 13.6956L23 8.14001M13 13.6956V24.8067" stroke="white" stroke-width="2" stroke-linejoin="round"/>
<path d="M7.99967 10.9177L17.9997 5.36218M6.33301 14.06L9.66634 15.9177" stroke="white" stroke-width="2" stroke-linecap="round" stroke-linejoin="round"/>
</svg>
