<svg width="26" height="26" viewBox="0 0 26 26" fill="none" xmlns="http://www.w3.org/2000/svg">
<g clip-path="url(#clip0_27_347)">
<path d="M13 0.8125C6.26925 0.8125 0.8125 6.26925 0.8125 13L0.812906 13.0215L0.8125 13.0431C0.8125 19.7502 6.23878 25.1875 12.933 25.1875L12.959 25.1867L13 25.1875C19.7308 25.1875 25.1875 19.7308 25.1875 13C25.1875 6.26925 19.7308 0.8125 13 0.8125ZM24.375 13C24.375 13.9726 24.2523 14.9163 24.0232 15.8169C23.9172 15.7438 23.6368 16.0461 23.5678 15.6455C23.4813 15.1483 22.9206 14.8029 22.6188 15.0406C22.3169 15.2782 21.4545 15.9693 21.4118 16.4015C21.3683 16.8334 21.0015 17.3518 20.8297 16.9853C20.6566 16.6181 20.1398 15.4728 20.161 15.1706C20.1821 14.8683 19.9229 15.2787 19.5362 14.6737C19.1478 14.0688 18.4795 14.5868 17.9404 14.2846C17.4013 13.9819 16.7976 13.5716 16.4954 13.4424C16.1943 13.3124 17.0345 14.6518 17.1425 14.4792C17.251 14.3065 17.6816 14.6087 17.8112 14.6087C17.9408 14.6087 18.2853 14.911 18.07 15.1921C17.8547 15.4733 15.936 16.6408 15.7418 16.3369C15.5468 16.0331 14.4052 13.6797 14.2106 13.8239C14.0164 13.9681 15.4184 16.4231 15.6557 16.5742C15.8921 16.7257 16.6043 16.5961 16.9487 16.445C17.2941 16.2939 16.2374 18.1301 15.7852 18.3463C15.3327 18.562 14.9663 19.2319 15.1596 19.5341C15.3538 19.8364 15.3753 20.9816 14.9663 21.1331C14.5559 21.2838 14.4052 21.5215 14.5344 21.8026C14.6632 22.0829 14.233 22.5578 14.0388 22.8605C13.8442 23.1628 13.0902 23.7892 13.0252 23.9622C12.961 24.1353 12.0339 24.0918 11.6667 24.0918C11.3007 24.0918 11.5806 23.6381 11.5371 23.2497C11.4948 22.8605 11.1715 22.4932 11.1715 22.2991C11.1715 22.1045 11.063 21.6507 10.9127 21.435C10.762 21.2184 10.7181 20.8081 10.8692 20.5709C11.0208 20.3328 11.128 19.6422 10.827 19.3395C10.5247 19.0373 10.1794 18.5185 10.4171 18.1082C10.6543 17.6979 10.1583 17.7413 9.74878 17.5463C9.33887 17.3518 8.49794 17.6113 8.06691 17.6763C7.63547 17.7409 7.20484 17.5683 7.07525 17.3518C6.94606 17.136 6.66575 16.5961 6.37853 16.4661C6.09212 16.3369 6.25625 15.7751 6.4285 15.5594C6.60156 15.3437 6.25625 14.9329 6.4285 14.7595C6.60156 14.5868 6.70881 13.9608 7.05372 13.8239C7.39903 13.6874 7.33403 13.5935 7.34459 13.2693C7.35556 12.9452 7.73256 12.9452 7.79675 12.7725C7.86175 12.5994 8.05553 12.5133 8.44472 12.5133C8.83269 12.5133 9.48959 12.2862 9.80241 12.2107C10.1152 12.1351 10.6543 12.027 10.6108 12.3297C10.5678 12.6319 10.5787 12.9773 10.7831 12.9773C10.9882 12.9773 11.2686 13.0963 11.5919 13.2978C11.9153 13.4989 11.9259 13.3343 11.9693 13.1073C12.0128 12.8802 12.465 12.9667 12.933 13.1828C13.401 13.3989 14.0392 13.2474 14.2431 13.2263C14.4483 13.2039 14.5348 12.5889 14.4808 12.3837C14.4263 12.1786 14.1034 12.4808 13.8986 12.3512C13.6939 12.222 13.4132 12.3837 13.2088 12.1997C13.0037 12.0165 12.9712 11.5842 13.2088 11.5737C13.4457 11.5627 13.5647 11.4871 13.7044 11.3254C13.845 11.1633 14.3731 11.0662 14.5779 11.2279C14.7822 11.39 15.0849 11.4981 15.2673 11.3145C15.4505 11.1313 14.9017 10.775 14.7822 10.6775C14.6636 10.5804 14.7607 10.2672 14.6425 10.2672C14.5234 10.2672 14.4263 10.3208 14.4913 10.4723C14.5559 10.6234 14.1464 10.8932 14.081 10.7425C14.0168 10.5909 13.9092 10.2997 13.7475 10.2997C13.5862 10.2997 13.3705 11.0342 13.3595 11.1528C13.3486 11.2718 13.0682 11.466 12.8424 11.466C12.6165 11.466 12.6165 11.7256 12.7347 11.8446C12.8533 11.9633 12.7668 12.4386 12.5515 12.4658C12.3358 12.4934 12.2602 12.417 12.2281 12.233C12.196 12.0498 11.9803 12.0713 11.9693 11.6931C11.9584 11.3149 11.7211 11.1317 11.5704 10.9586C11.4197 10.7855 11.0313 10.2781 10.8806 10.5052C10.7299 10.7323 11.4197 11.2182 11.6025 11.3474C11.7865 11.477 11.754 11.7577 11.6569 11.8227C11.5598 11.8877 11.3766 12.417 11.269 12.4597C11.1605 12.5028 11.0577 12.2988 11.0577 12.2988C10.896 12.2342 11.2836 12.0396 11.3486 11.9425C11.4128 11.8454 10.6698 11.165 10.5357 10.9704C10.4016 10.7758 9.82881 11.1321 9.57044 11.0029C9.31166 10.8737 8.92328 11.4887 8.89159 11.845C8.85869 12.2017 8.43822 12.2984 8.05025 12.2984C7.66269 12.2984 7.4035 12.0071 7.5335 11.7154C7.66269 11.4237 7.4685 10.9379 7.69519 10.9054C7.92147 10.8733 8.56741 10.9054 8.697 10.5491C8.82619 10.1928 8.08234 9.86862 8.37403 9.80403C8.6645 9.73903 9.11788 9.28606 9.44125 9.02647C9.76381 8.76728 9.79631 8.4435 10.0872 8.42075C10.3789 8.39841 10.023 7.85972 10.2818 7.69803C10.541 7.53594 10.6052 8.28141 10.7993 8.28141C10.9935 8.28141 11.3807 8.21641 11.7045 8.3785C12.0283 8.54059 12.1249 8.21641 12.2545 7.79472C12.3837 7.37384 12.7071 7.14675 13.3534 6.82297C14.0002 6.49878 12.6104 6.92006 12.3512 6.59587C12.0924 6.27169 12.4483 5.55872 12.6104 5.05538C12.7721 4.55163 12.0928 5.55872 11.737 6.0775C11.3807 6.59587 11.8341 6.82256 11.8012 7.17884C11.7691 7.53553 11.1877 7.95641 11.1877 7.95641C10.9289 7.98891 10.961 7.47053 10.8318 7.24384C10.7023 7.01716 10.4756 7.11425 10.1197 7.37344C9.76381 7.63262 9.73172 6.75797 9.63503 6.40128C9.53875 6.04541 10.2172 5.59122 10.5361 5.34909C10.8546 5.10616 11.3807 3.939 11.9633 3.03225C12.5458 2.12509 13.3863 2.57847 13.6126 2.93516C13.8397 3.29103 14.4207 3.06434 14.9711 3.71272C15.5212 4.36069 14.8415 4.65197 14.2281 4.38872C13.6126 4.12547 14.3569 5.04116 14.7119 5.30034C15.0678 5.55912 15.262 4.71697 15.3916 4.52278C15.5208 4.32819 16.0054 4.42569 16.3609 3.90691C16.7172 3.38853 17.5252 3.48603 17.9867 3.54291C18.4486 3.60019 18.3337 3.25894 18.0428 2.97984C17.8275 2.77347 18.2678 2.95425 18.7862 3.20734C22.1309 5.187 24.375 8.83066 24.375 13ZM8.14206 9.12925C8.03481 9.01834 8.25053 8.58162 8.34722 8.45203C8.44472 8.32244 8.07747 8.3655 8.09981 8.54953C8.12134 8.73275 7.95925 9.01388 7.73297 9.08944C7.50669 9.165 7.24872 9.14306 7.3775 8.93791C7.50628 8.73275 7.38806 8.54913 7.29097 8.35453C7.19428 8.15994 7.82966 8.04131 7.95966 7.92269C8.08884 7.80406 7.75531 7.72809 7.76547 7.54488C7.77644 7.36084 7.852 7.19916 7.98037 7.17762C8.10997 7.15609 8.23103 7.07322 8.34722 7.08053C8.7035 7.10247 8.59462 7.91213 8.72463 8.17172C8.85381 8.4305 9.22066 8.74412 9.18816 8.97041C9.15566 9.1975 9.08659 9.32709 8.82253 9.26209C8.55725 9.19709 8.13272 9.59684 7.97022 9.52128C7.80813 9.44531 8.25053 9.24016 8.14206 9.12925ZM5.81913 4.58697C6.14291 4.74866 6.40088 4.45534 6.62675 4.39237C6.89447 4.31844 7.04722 5.26744 6.78884 5.23494C6.53006 5.20244 6.23919 5.75331 5.86544 5.72081C5.49128 5.68831 5.65703 5.42953 5.23656 5.04075C5.14638 4.95706 5.10941 4.8815 5.10616 4.81528C5.19594 4.72875 5.28531 4.64181 5.37834 4.55853C5.52378 4.51994 5.69644 4.52563 5.81913 4.58697ZM15.9356 20.8942C16.2374 20.8297 16.1793 20.2552 16.4531 20.2248C17.0353 20.1602 16.4747 21.7799 16.2593 22.2337C16.0436 22.6874 15.9567 22.6655 15.7515 22.3848C15.5456 22.1045 15.6122 21.6503 15.7515 21.4346C15.8905 21.218 15.6333 20.9592 15.9356 20.8942Z" fill="white"/>
</g>
<defs>
<clipPath id="clip0_27_347">
<rect width="26" height="26" fill="white"/>
</clipPath>
</defs>
</svg>
