<svg width="35" height="35" viewBox="0 0 35 35" fill="none" xmlns="http://www.w3.org/2000/svg">
<circle opacity="0.15" cx="17.9229" cy="17.4231" r="17" fill="#242582"/>
<path d="M23.4289 22.2399L21.3646 20.1756M22.7408 16.7351C22.7408 17.3677 22.6162 17.994 22.3741 18.5784C22.132 19.1628 21.7773 19.6938 21.33 20.141C20.8827 20.5883 20.3517 20.9431 19.7673 21.1851C19.183 21.4272 18.5566 21.5518 17.9241 21.5518C17.2916 21.5518 16.6652 21.4272 16.0808 21.1851C15.4964 20.9431 14.9655 20.5883 14.5182 20.141C14.0709 19.6938 13.7161 19.1628 13.4741 18.5784C13.232 17.994 13.1074 17.3677 13.1074 16.7351C13.1074 15.4577 13.6149 14.2325 14.5182 13.3292C15.4215 12.4259 16.6466 11.9185 17.9241 11.9185C19.2015 11.9185 20.4267 12.4259 21.33 13.3292C22.2333 14.2325 22.7408 15.4577 22.7408 16.7351Z" stroke="#242582" stroke-width="2.28571" stroke-linecap="round" stroke-linejoin="round"/>
</svg>
