<svg width="23" height="22" viewBox="0 0 23 22" fill="none" xmlns="http://www.w3.org/2000/svg">
<g clip-path="url(#clip0_35_348)">
<path d="M21.5849 5.88501C21.476 5.44996 21.2542 5.05136 20.942 4.72946C20.6297 4.40756 20.2381 4.17376 19.8065 4.05167C18.2299 3.66667 11.9232 3.66667 11.9232 3.66667C11.9232 3.66667 5.61655 3.66667 4.03988 4.08834C3.60836 4.21042 3.21669 4.44423 2.90445 4.76613C2.5922 5.08803 2.37044 5.48663 2.26155 5.92167C1.97299 7.52176 1.83185 9.14496 1.83988 10.7708C1.82959 12.409 1.97075 14.0445 2.26155 15.6567C2.38159 16.0782 2.60833 16.4616 2.91984 16.7699C3.23136 17.0783 3.61713 17.301 4.03988 17.4167C5.61655 17.8383 11.9232 17.8383 11.9232 17.8383C11.9232 17.8383 18.2299 17.8383 19.8065 17.4167C20.2381 17.2946 20.6297 17.0608 20.942 16.7389C21.2542 16.417 21.476 16.0184 21.5849 15.5833C21.8712 13.9953 22.0123 12.3845 22.0065 10.7708C22.0168 9.13271 21.8757 7.49715 21.5849 5.88501Z" fill="#242582" stroke="#242582" stroke-width="2" stroke-linecap="round" stroke-linejoin="round"/>
<path d="M9.86084 12.0492C9.86084 12.8161 10.6885 13.2976 11.3552 12.9185L13.6031 11.6401C14.2774 11.2567 14.2774 10.285 13.6032 9.90157L11.3552 8.62316C10.6885 8.24404 9.86084 8.72552 9.86084 9.49242V12.0492Z" fill="white"/>
</g>
<defs>
<clipPath id="clip0_35_348">
<rect width="22" height="22" fill="white" transform="translate(0.92334)"/>
</clipPath>
</defs>
</svg>
