<svg width="1920" height="655" viewBox="0 0 1920 655" fill="none" xmlns="http://www.w3.org/2000/svg">
<path d="M-228.262 456.02C-228.262 456.02 47.8082 313.482 778.506 522.79C1509.2 732.098 2052.51 273.79 2052.51 273.79C1614.28 329.71 689.193 91.5194 311.946 127.182C-115.057 176.793 -228.262 456.02 -228.262 456.02Z" fill="#19C7F9"/>
<path d="M-220.459 403.795C-220.459 403.795 58.4807 273.285 780.506 510.79C1502.53 748.295 2064.51 264.29 2064.51 264.29C1624.44 303.162 710.45 75.1703 332.103 96.167C-96.5038 129.171 -220.459 403.795 -220.459 403.795Z" fill="#359BF8"/>
<path d="M-221.858 356.765C-221.858 356.765 63.1893 238.148 777.006 499.29C1490.82 760.432 2034.97 295.043 2034.97 295.043C1593.86 319.409 719.363 58.9598 340.53 67.4919C-88.9309 86.3704 -221.858 356.765 -221.858 356.765Z" fill="#3B69DB"/>
<path d="M-199.473 304.827C-199.473 304.827 82.0747 198.62 782.506 493.79C1505.51 798.47 2275.47 181.79 2275.47 181.79C1833.7 184.914 754.982 52.6332 376.177 42.9359C-53.6947 41.1381 -199.473 304.827 -199.473 304.827Z" fill="#242582"/>
</svg>
